<?xml version="1.0" encoding="utf-8"?>
<!-- Generator: Adobe Illustrator 27.7.0, SVG Export Plug-In . SVG Version: 6.00 Build 0)  -->
<svg version="1.1" xmlns="http://www.w3.org/2000/svg" xmlns:xlink="http://www.w3.org/1999/xlink" x="0px" y="0px"
	 viewBox="0 0 347.7 347" style="enable-background:new 0 0 347.7 347;" xml:space="preserve">
<style type="text/css">
	.st0{display:none;}
	.st1{display:inline;fill:#231F20;stroke:#000000;stroke-miterlimit:10;}
	.st2{fill:none;stroke:#DDDDDD;stroke-miterlimit:10;}
	.st3{fill:none;}
	.st4{display:none;fill:none;stroke:#DDDDDD;stroke-miterlimit:10;}
	.st5{fill:none;stroke:#888888;stroke-miterlimit:10;}
	.st6{fill:#FFFFFF;}
	.st7{font-family:'ArialMT';}
	.st8{font-size:10px;}
	.st9{opacity:0;enable-background:new    ;}
	.st10{font-family:'Arial-BoldMT';}
	.st11{font-size:11px;}
	.st12{fill:none;stroke:#E45756;stroke-width:6;stroke-miterlimit:10;}
	.st13{display:none;fill:none;stroke:#E45756;stroke-width:2;stroke-miterlimit:10;}
	.st14{fill:none;stroke:#F58518;stroke-width:6;stroke-miterlimit:10;}
	.st15{display:none;fill:none;stroke:#F58518;stroke-width:2;stroke-miterlimit:10;}
	.st16{fill:none;stroke:#4C78A8;stroke-width:6;stroke-miterlimit:10;}
	.st17{display:none;fill:none;stroke:#4C78A8;stroke-width:2;stroke-miterlimit:10;}
	.st18{fill:#4C79A9;}
	.st19{font-size:14px;}
	.st20{fill:#E88813;}
	.st21{fill:#ED1414;}
	.st22{fill:none;stroke:#F58518;stroke-width:2;stroke-miterlimit:10;}
	.st23{fill:#FFFFFF;stroke:#000000;stroke-miterlimit:10;}
	.st24{fill:none;stroke:#FFFFFF;stroke-miterlimit:10;}
</style>
<g id="background" class="st0">
	<rect x="-3.2" y="-2.4" class="st1" width="354" height="354"/>
</g>
<g id="Layer_1">
	<path class="st2" d="M39.5,10.5h300v300h-300V10.5z"/>
	<path pointer-events="none" class="st3" d="M39.5,310.5L39.5,310.5L39.5,310.5L39.5,310.5z"/>
	<line class="st2" x1="39.5" y1="10.5" x2="39.5" y2="310.5"/>
	<line class="st2" x1="339.5" y1="10.5" x2="339.5" y2="310.5"/>
	<path pointer-events="none" class="st4" d="M39.5,310.5"/>
	<path pointer-events="none" class="st3" d="M39.5,10.5L39.5,10.5L39.5,10.5L39.5,10.5z"/>
	<line class="st2" x1="39.5" y1="310.5" x2="339.5" y2="310.5"/>
	<line class="st2" x1="39.5" y1="10.5" x2="339.5" y2="10.5"/>
	<path pointer-events="none" class="st4" d="M39.5,10.5"/>
	<path pointer-events="none" class="st3" d="M39.5,310.5L39.5,310.5L39.5,310.5L39.5,310.5z"/>
	<line class="st5" x1="39.5" y1="310.5" x2="39.5" y2="315.5"/>
	<line class="st5" x1="77.5" y1="310.5" x2="77.5" y2="315.5"/>
	<line class="st5" x1="114.5" y1="310.5" x2="114.5" y2="315.5"/>
	<line class="st5" x1="152.5" y1="310.5" x2="152.5" y2="315.5"/>
	<line class="st5" x1="189.5" y1="310.5" x2="189.5" y2="315.5"/>
	<line class="st5" x1="227.5" y1="310.5" x2="227.5" y2="315.5"/>
	<line class="st5" x1="264.5" y1="310.5" x2="264.5" y2="315.5"/>
	<line class="st5" x1="302.5" y1="310.5" x2="302.5" y2="315.5"/>
	<line class="st5" x1="339.5" y1="310.5" x2="339.5" y2="315.5"/>
	<text transform="matrix(1 0 0 1 39.5 325.5)" class="st6 st7 st8">0</text>
	<text transform="matrix(1 0 0 1 68.6577 325.5)" class="st9 st7 st8">500</text>
	<text transform="matrix(1 0 0 1 101.9878 325.5)" class="st6 st7 st8">1,000</text>
	<text transform="matrix(1 0 0 1 139.4878 325.5)" class="st9 st7 st8">1,500</text>
	<text transform="matrix(1 0 0 1 176.9878 325.5)" class="st6 st7 st8">2,000</text>
	<text transform="matrix(1 0 0 1 214.4878 325.5)" class="st9 st7 st8">2,500</text>
	<text transform="matrix(1 0 0 1 251.9878 325.5)" class="st6 st7 st8">3,000</text>
	<text transform="matrix(1 0 0 1 289.4878 325.5)" class="st9 st7 st8">3,500</text>
	<text transform="matrix(1 0 0 1 314.4756 325.5)" class="st6 st7 st8">4,000</text>
	<text transform="matrix(1 0 0 1 152.8181 340.5)" class="st6 st10 st11">distance (meters)</text>
	<path pointer-events="none" class="st0" d="M39.5,310.5"/>
	<path pointer-events="none" class="st3" d="M39.5,10.5L39.5,10.5L39.5,10.5L39.5,10.5z"/>
	<line class="st5" x1="39.5" y1="310.5" x2="34.5" y2="310.5"/>
	<line class="st5" x1="39.5" y1="277.5" x2="34.5" y2="277.5"/>
	<line class="st5" x1="39.5" y1="243.5" x2="34.5" y2="243.5"/>
	<line class="st5" x1="39.5" y1="210.5" x2="34.5" y2="210.5"/>
	<line class="st5" x1="39.5" y1="177.5" x2="34.5" y2="177.5"/>
	<line class="st5" x1="39.5" y1="143.5" x2="34.5" y2="143.5"/>
	<line class="st5" x1="39.5" y1="110.5" x2="34.5" y2="110.5"/>
	<line class="st5" x1="39.5" y1="77.5" x2="34.5" y2="77.5"/>
	<line class="st5" x1="39.5" y1="43.5" x2="34.5" y2="43.5"/>
	<line class="st5" x1="39.5" y1="10.5" x2="34.5" y2="10.5"/>
	<text transform="matrix(1 0 0 1 26.9385 313.5)" class="st6 st7 st8">0</text>
	<text transform="matrix(1 0 0 1 26.9385 280.1666)" class="st6 st7 st8">5</text>
	<text transform="matrix(1 0 0 1 21.377 246.8333)" class="st6 st7 st8">10</text>
	<text transform="matrix(1 0 0 1 21.377 213.5)" class="st6 st7 st8">15</text>
	<text transform="matrix(1 0 0 1 21.377 180.1667)" class="st6 st7 st8">20</text>
	<text transform="matrix(1 0 0 1 21.377 146.8333)" class="st6 st7 st8">25</text>
	<text transform="matrix(1 0 0 1 21.377 113.5)" class="st6 st7 st8">30</text>
	<text transform="matrix(1 0 0 1 21.377 80.1667)" class="st6 st7 st8">35</text>
	<text transform="matrix(1 0 0 1 21.377 46.8334)" class="st6 st7 st8">40</text>
	<text transform="matrix(1 0 0 1 21.377 13.5)" class="st6 st7 st8">45</text>
	<line class="st5" x1="39.5" y1="310.5" x2="39.5" y2="10.5"/>
	<text transform="matrix(6.123234e-17 -1 1 6.123234e-17 15.377 171.2051)" class="st6 st10 st11">elevation (meters)</text>
	<path pointer-events="none" class="st0" d="M39.5,10.5"/>
	<path class="st3" d="M39,10h300v300H39V10z"/>
	<path class="st12" d="M39,142.3l0.2,1.3l0.9-6.9l2.6-1.7l15.4-38.2l0.7-3.7l0,0l0,0l0.3-0.9l0.3-1.9l5-26.9h1l2.9-9.5l0.1-0.3
		l9.3-30.7l0.2,0.1l5.8,13.7h0.2L86,48.6l0.1,0.6l3.8,8.4l5.8,17.6l0.2,1.5l0,0l5.7,5.7l6,0.9l5.9-1.3l0.1,0.2L116,83l0.1-0.3
		l3.2-0.6l0.1,0.5l4.3,0.7h0.1h1h0.9h0.1h0.9h5.6h5.3h0.4h0.2h0.6h4.7h0.6h0.5h2h0.1h2.9h0.6l0.5-0.3l4.9-1.4l0.6,1.7h0.1h0.4h1.9"
		/>
	<path class="st13" d="M39,10"/>
	<path class="st3" d="M39,10h300v300H39V10z"/>
	<path class="st14" d="M158.4,83.3l3,9.4l0.5,3.6l0.5,0.3h2.5l0,0l2.3,2.6l0.7-0.4l0,0h0.6l1.6,2.9l0,0l3.2,4.9l0.6-0.1l0.1,0.7
		l0.4,2.6l5,6.7l0.5-0.3l0.1-0.1l0.4,0.4h4h0.1l0.9,3.4l0.9,3.3l1,3.1l10.8,47l0.6,3.3h0.6l4.8,15.7l0.5,4.3h0.5l5,18.1l0.6,1.9
		l0.6,3.8l5.3,22.9l5.4,18.5l0.5,1.5h0.5"/>
	<path class="st15" d="M39,10"/>
	<path class="st16" d="M226.5,263.3l1.1-1l1.1-5.7l1.8-4l2.5-9.3l0.7-4.1l0.8-4.1l11.2-38.4l0.7-0.3l0.8-5.4l9.9-34.3l1.8-6.1
		l5.3-24.1l0.8-3.1h0.7l4.7-18.3l0.6-1.7l0.6-0.3l5-19.7l0.9-2.3l0.9-4.4l4-13.3h0.5l0.6-2.9l5.1-18.2l0.6-4.3l0.5-1.3h0.2l3.3-4.7
		l0.5,2.9l7,1.9h0.5"/>
	<path class="st17" d="M39,10"/>
	<path pointer-events="none" class="st3" d="M357,26L357,26L357,26L357,26z"/>
	<g>
		<text transform="matrix(1 0 0 1 251.4998 284.1496)" class="st18 st10 st19">125th</text>
		<text transform="matrix(1 0 0 1 251.4998 296.1496)" class="st18 st10 st19">to 116th</text>
	</g>
	<path pointer-events="none" class="st0" d="M357,144"/>
	<g>
		<text transform="matrix(1 0 0 1 167.8384 281.719)" class="st20 st10 st19">139th </text>
		<text transform="matrix(1 0 0 1 167.8384 293.719)" class="st20 st10 st19">to 125th</text>
	</g>
	<path pointer-events="none" class="st0" d="M357,115"/>
	<g>
		<g>
			<text transform="matrix(1 0 0 1 83.6494 285.7994)" class="st21 st10 st19">157th</text>
		</g>
		<text transform="matrix(1 0 0 1 83.6494 297.7994)" class="st21 st10 st19">to 139th</text>
	</g>
	<path pointer-events="none" class="st0" d="M357,87"/>
	<path pointer-events="none" class="st0" d="M357,26"/>
	<path pointer-events="none" class="st0" d="M357,10"/>
	<path class="st0" d="M39,10"/>
	<path class="st2" d="M222.6,310"/>
	<line class="st2" x1="224.5" y1="310" x2="224.5" y2="11.3"/>
	<line class="st2" x1="158.4" y1="310" x2="155.8" y2="11.3"/>
	<g>
		<path class="st6" d="M156,83.3"/>
	</g>
	<path class="st22" d="M224.5,264.9"/>
	<path class="st23" d="M174.3,310"/>
	<rect x="169.7" y="30.9" class="st3" width="49.8" height="25.3"/>
	<text transform="matrix(1 0 0 1 169.7497 37.9612)" class="st6 st7 st8">139th and </text>
	<text transform="matrix(1 0 0 1 169.7497 49.9612)" class="st6 st7 st8">Broadway</text>
	<rect x="270.6" y="277.5" class="st3" width="49.8" height="25.3"/>
	<text transform="matrix(1 0 0 1 282.0004 232.951)" class="st6 st7 st8">125th and </text>
	<text transform="matrix(1 0 0 1 283.0808 246.8326)" class="st6 st7 st8">Broadway</text>
	<rect x="64.7" y="160.7" class="st3" width="49.8" height="25.3"/>
	<text transform="matrix(1 0 0 1 81.222 175.9283)" class="st6 st7 st8">156th and </text>
	<text transform="matrix(1 0 0 1 82.5662 185.6663)" class="st6 st7 st8">Riverside</text>
	<rect x="289.7" y="46.2" class="st3" width="49.8" height="25.3"/>
	<text transform="matrix(1 0 0 1 289.707 53.2719)" class="st6 st7 st8">116th and </text>
	<text transform="matrix(1 0 0 1 289.707 65.2718)" class="st6 st7 st8">Broadway</text>
	<g>
		<line class="st3" x1="77.5" y1="173" x2="44.6" y2="153.2"/>
		<g>
			<line class="st24" x1="77.5" y1="173" x2="50.7" y2="156.9"/>
			<g>
				<polygon class="st6" points="48.5,160.8 44.6,153.2 55.4,154.4 				"/>
			</g>
		</g>
	</g>
	<g>
		<line class="st3" x1="194.6" y1="52.5" x2="160.8" y2="79.7"/>
		<g>
			<line class="st24" x1="194.6" y1="52.5" x2="167.1" y2="74.7"/>
			<g>
				<polygon class="st6" points="164.9,69.3 160.8,79.7 171.9,78 				"/>
			</g>
		</g>
	</g>
	<g>
		<line class="st3" x1="280.8" y1="239.6" x2="231.4" y2="264.9"/>
		<g>
			<line class="st24" x1="280.8" y1="239.6" x2="240.6" y2="260.2"/>
			<g>
				<polygon class="st6" points="237.3,255.2 231.4,264.9 247.7,263.3 				"/>
			</g>
		</g>
	</g>
</g>
</svg>
