<?xml version="1.0" encoding="utf-8"?>
<!-- Generator: Adobe Illustrator 27.7.0, SVG Export Plug-In . SVG Version: 6.00 Build 0)  -->
<svg version="1.1" id="Layer_1" xmlns="http://www.w3.org/2000/svg" xmlns:xlink="http://www.w3.org/1999/xlink" x="0px" y="0px"
	 viewBox="0 0 348.1 347" style="enable-background:new 0 0 348.1 347;" xml:space="preserve">
<style type="text/css">
	.st0{fill:none;stroke:#DDDDDD;stroke-miterlimit:10;}
	.st1{fill:none;}
	.st2{display:none;fill:none;stroke:#DDDDDD;stroke-miterlimit:10;}
	.st3{fill:none;stroke:#888888;stroke-miterlimit:10;}
	.st4{font-family:'ArialMT';}
	.st5{font-size:10px;}
	.st6{opacity:0;enable-background:new    ;}
	.st7{font-family:'Arial-BoldMT';}
	.st8{font-size:11px;}
	.st9{display:none;}
	.st10{fill:none;stroke:#E45756;stroke-width:6;stroke-miterlimit:10;}
	.st11{display:none;fill:none;stroke:#E45756;stroke-width:2;stroke-miterlimit:10;}
	.st12{fill:none;stroke:#F58518;stroke-width:6;stroke-miterlimit:10;}
	.st13{display:none;fill:none;stroke:#F58518;stroke-width:2;stroke-miterlimit:10;}
	.st14{fill:none;stroke:#4C78A8;stroke-width:6;stroke-miterlimit:10;}
	.st15{display:none;fill:none;stroke:#4C78A8;stroke-width:2;stroke-miterlimit:10;}
	.st16{fill:none;stroke:#000000;stroke-miterlimit:10;}
	.st17{fill:#FFFFFF;}
	.st18{fill:#4C79A9;}
	.st19{font-size:14px;}
	.st20{fill:#E88813;}
	.st21{fill:#ED1414;}
</style>
<path class="st0" d="M39.5,10.5h300v300h-300V10.5z"/>
<path pointer-events="none" class="st1" d="M39.5,310.5L39.5,310.5L39.5,310.5L39.5,310.5z"/>
<line class="st0" x1="39.5" y1="10.5" x2="39.5" y2="310.5"/>
<line class="st0" x1="339.5" y1="10.5" x2="339.5" y2="310.5"/>
<path pointer-events="none" class="st2" d="M39.5,310.5"/>
<path pointer-events="none" class="st1" d="M39.5,10.5L39.5,10.5L39.5,10.5L39.5,10.5z"/>
<line class="st0" x1="39.5" y1="310.5" x2="339.5" y2="310.5"/>
<line class="st0" x1="39.5" y1="10.5" x2="339.5" y2="10.5"/>
<path pointer-events="none" class="st2" d="M39.5,10.5"/>
<path pointer-events="none" class="st1" d="M39.5,310.5L39.5,310.5L39.5,310.5L39.5,310.5z"/>
<line class="st3" x1="39.5" y1="310.5" x2="39.5" y2="315.5"/>
<line class="st3" x1="77.5" y1="310.5" x2="77.5" y2="315.5"/>
<line class="st3" x1="114.5" y1="310.5" x2="114.5" y2="315.5"/>
<line class="st3" x1="152.5" y1="310.5" x2="152.5" y2="315.5"/>
<line class="st3" x1="189.5" y1="310.5" x2="189.5" y2="315.5"/>
<line class="st3" x1="227.5" y1="310.5" x2="227.5" y2="315.5"/>
<line class="st3" x1="264.5" y1="310.5" x2="264.5" y2="315.5"/>
<line class="st3" x1="302.5" y1="310.5" x2="302.5" y2="315.5"/>
<line class="st3" x1="339.5" y1="310.5" x2="339.5" y2="315.5"/>
<text transform="matrix(1 0 0 1 39.5 325.5)" class="st4 st5">0</text>
<text transform="matrix(1 0 0 1 68.6577 325.5)" class="st6 st4 st5">500</text>
<text transform="matrix(1 0 0 1 101.9878 325.5)" class="st4 st5">1,000</text>
<text transform="matrix(1 0 0 1 139.4878 325.5)" class="st6 st4 st5">1,500</text>
<text transform="matrix(1 0 0 1 176.9878 325.5)" class="st4 st5">2,000</text>
<text transform="matrix(1 0 0 1 214.4878 325.5)" class="st6 st4 st5">2,500</text>
<text transform="matrix(1 0 0 1 251.9878 325.5)" class="st4 st5">3,000</text>
<text transform="matrix(1 0 0 1 289.4878 325.5)" class="st6 st4 st5">3,500</text>
<text transform="matrix(1 0 0 1 314.4756 325.5)" class="st4 st5">4,000</text>
<line class="st3" x1="39.5" y1="310.5" x2="339.5" y2="310.5"/>
<text transform="matrix(1 0 0 1 152.8181 340.5)" class="st7 st8">distance (meters)</text>
<path pointer-events="none" class="st9" d="M39.5,310.5"/>
<path pointer-events="none" class="st1" d="M39.5,10.5L39.5,10.5L39.5,10.5L39.5,10.5z"/>
<line class="st3" x1="39.5" y1="310.5" x2="34.5" y2="310.5"/>
<line class="st3" x1="39.5" y1="277.5" x2="34.5" y2="277.5"/>
<line class="st3" x1="39.5" y1="243.5" x2="34.5" y2="243.5"/>
<line class="st3" x1="39.5" y1="210.5" x2="34.5" y2="210.5"/>
<line class="st3" x1="39.5" y1="177.5" x2="34.5" y2="177.5"/>
<line class="st3" x1="39.5" y1="143.5" x2="34.5" y2="143.5"/>
<line class="st3" x1="39.5" y1="110.5" x2="34.5" y2="110.5"/>
<line class="st3" x1="39.5" y1="77.5" x2="34.5" y2="77.5"/>
<line class="st3" x1="39.5" y1="43.5" x2="34.5" y2="43.5"/>
<line class="st3" x1="39.5" y1="10.5" x2="34.5" y2="10.5"/>
<text transform="matrix(1 0 0 1 26.9385 313.5)" class="st4 st5">0</text>
<text transform="matrix(1 0 0 1 26.9385 280.1666)" class="st4 st5">5</text>
<text transform="matrix(1 0 0 1 21.377 246.8333)" class="st4 st5">10</text>
<text transform="matrix(1 0 0 1 21.377 213.5)" class="st4 st5">15</text>
<text transform="matrix(1 0 0 1 21.377 180.1667)" class="st4 st5">20</text>
<text transform="matrix(1 0 0 1 21.377 146.8333)" class="st4 st5">25</text>
<text transform="matrix(1 0 0 1 21.377 113.5)" class="st4 st5">30</text>
<text transform="matrix(1 0 0 1 21.377 80.1667)" class="st4 st5">35</text>
<text transform="matrix(1 0 0 1 21.377 46.8334)" class="st4 st5">40</text>
<text transform="matrix(1 0 0 1 21.377 13.5)" class="st4 st5">45</text>
<line class="st3" x1="39.5" y1="310.5" x2="39.5" y2="10.5"/>
<text transform="matrix(6.123234e-17 -1 1 6.123234e-17 15.377 171.2051)" class="st7 st8">elevation (meters)</text>
<path pointer-events="none" class="st9" d="M39.5,10.5"/>
<path class="st1" d="M39,10h300v300H39V10z"/>
<path class="st10" d="M39,136l0.3,0.6l2.6-1.7l1.2,1.8l2.6,15.8l1.9,26.4l1.6,17.7l1.4,3.9l1.2-0.1l0.8-4.7l0.7,5.1l13.7-3.1
	l0.9-14.8l0.6-10.1l1.9-12.3l1.2-3.9h0.6l1.8-5h2l1.1,0.7l0.3,0.7h0.4l1.9-3.1l2.9,0.8l0.7-1.8l1.8,1.7l1.1,0.2l1.1,0.1l1.8,3.7
	l1.4,1.9h0.8l1.6-1.6l0.2-0.5h0.1l0.7-5.1l5.3-12.2l6,0.6l5.9,0.4l5.9,3.5l0.6-0.7l0,0l0,0l6.5,11l5.8,11.2h0.5l2,6.7l1.8,7.1
	l1.6,6.3h0.5h0.4l5.7-12.1l5.9,6.5l4,14.4l0.9,1.2l0.5-1l0.4-1.3l0.6-1.1"/>
<path class="st11" d="M39,10"/>
<path class="st1" d="M39,10h300v300H39V10z"/>
<path class="st12" d="M155.1,190.2l4.5-6.2l1.2-0.7l0.5-2.5l2.2-4.2l2.1-11.1l0.5-2.2l6,26.7l6.8-13.3l7.1-20h5.8h6h5.9l6-6.7
	l5.9-6.7l7.8-26.7"/>
<path class="st13" d="M39,10"/>
<path class="st1" d="M39,10h300v300H39V10z"/>
<path class="st14" d="M223.8,116.7l0.5,2.1l0.7-0.5l0.6,1.3l0.5-2.3l2.1,2.5l1.1-1.5l0.5-0.7l0.5,1.1l0.5-1.9h0.2l0.6,0.1l0.4-1.3
	l0.4,0.5l0.5,2.2l0.6-0.7h0.6l0.7-1.3l7.4-21.3l8.3-13.1l5.4-5.4l1.1-2.3l0.9,2.1l0.5-3.1l0.9,0.9l0.8-2.7l0.4-1.1h0.2l0.6-2.8
	l0.2-2.1l2.6-8.4h0.9h2.1l1.3,6.7h1.1l1,2.7l0.5,4h0.4h0.4l0.8,0.7l0.8,6l4.3,6.7h0.5h0.5l7,6.7l10,26.7h0.9l0,0l0,0l0.7-2.3
	l0.7-4.3l2.1-6.7l3.1-13.9l0.9,0.7l0.7-6.9l0.6-19.6l5.1-26.9h0.2l0.6,2.8l0.1,0.6"/>
<path class="st15" d="M39,10"/>
<path pointer-events="none" class="st1" d="M357,26L357,26L357,26L357,26z"/>
<path pointer-events="none" class="st9" d="M357,26"/>
<path pointer-events="none" class="st9" d="M357,39"/>
<path pointer-events="none" class="st9" d="M357,52"/>
<path pointer-events="none" class="st9" d="M357,26"/>
<path pointer-events="none" class="st9" d="M357,10"/>
<path class="st9" d="M39,10"/>
<g>
	<line class="st1" x1="130" y1="227.8" x2="150.6" y2="198.9"/>
	<g>
		<line class="st16" x1="130" y1="227.8" x2="146.4" y2="204.7"/>
		<g>
			<polygon points="149.6,208.8 150.6,198.9 141.5,203 			"/>
		</g>
	</g>
</g>
<g>
	<line class="st1" x1="250.1" y1="152.2" x2="226" y2="122.6"/>
	<g>
		<line class="st16" x1="250.1" y1="152.2" x2="230.6" y2="128.1"/>
		<g>
			<polygon points="235.4,126.1 226,122.6 227.6,132.4 			"/>
		</g>
	</g>
</g>
<rect x="101.6" y="230.9" class="st1" width="49.8" height="25.3"/>
<text transform="matrix(1 0 0 1 101.642 237.9612)" class="st4 st5">139th and </text>
<text transform="matrix(1 0 0 1 101.642 249.9612)" class="st4 st5">Riverside</text>
<rect x="233.5" y="158.2" class="st1" width="49.8" height="25.3"/>
<text transform="matrix(1 0 0 1 233.4581 165.3143)" class="st4 st5">125th and </text>
<text transform="matrix(1 0 0 1 233.4581 177.3143)" class="st4 st5">Riverside</text>
<rect x="70" y="102.4" class="st1" width="49.8" height="25.3"/>
<text transform="matrix(1 0 0 1 70.0432 109.5467)" class="st4 st5">156th and </text>
<text transform="matrix(1 0 0 1 70.0432 121.5467)" class="st4 st5">Riverside</text>
<g>
	<line class="st1" x1="67.2" y1="116.7" x2="44.6" y2="132.7"/>
	<g>
		<line class="st16" x1="67.2" y1="116.7" x2="50.4" y2="128.5"/>
		<g>
			<polygon points="48.8,123.6 44.6,132.7 54.5,131.8 			"/>
		</g>
	</g>
</g>
<rect x="225.2" y="27" class="st1" width="49.8" height="25.3"/>
<text transform="matrix(1 0 0 1 225.2299 34.1052)" class="st4 st5">116th and </text>
<text transform="matrix(1 0 0 1 225.2299 46.1052)" class="st4 st5">Broadway</text>
<g>
	<line class="st1" x1="271.2" y1="37" x2="305" y2="36.7"/>
	<g>
		<line class="st16" x1="271.2" y1="37" x2="297.8" y2="36.7"/>
		<g>
			<polygon points="296.4,41.7 305,36.7 296.3,31.8 			"/>
		</g>
	</g>
</g>
<line class="st1" x1="152.5" y1="310.5" x2="153.3" y2="10.5"/>
<path class="st17" d="M223.8,11.3L223.5,310L223.8,11.3z"/>
<line class="st1" x1="154.9" y1="310" x2="155.1" y2="11.3"/>
<line class="st1" x1="223.5" y1="310" x2="223.8" y2="11.3"/>
<path class="st17" d="M175.7,250.1"/>
<line class="st0" x1="224.5" y1="309.7" x2="224.5" y2="11"/>
<line class="st0" x1="158.4" y1="309.7" x2="155.8" y2="11"/>
<g>
	<text transform="matrix(1 0 0 1 250.1002 281.5624)" class="st18 st7 st19">125th</text>
	<text transform="matrix(1 0 0 1 250.1002 293.5624)" class="st18 st7 st19">to 116th</text>
</g>
<g>
	<text transform="matrix(1 0 0 1 166.9182 280.3624)" class="st20 st7 st19">139th </text>
	<text transform="matrix(1 0 0 1 166.9182 292.3624)" class="st20 st7 st19">to 125th</text>
</g>
<g>
	<g>
		<text transform="matrix(1 0 0 1 81.5165 280.2865)" class="st21 st7 st19">157th</text>
	</g>
	<text transform="matrix(1 0 0 1 81.5165 292.2865)" class="st21 st7 st19">to 139th</text>
</g>
</svg>
