<?xml version="1.0" encoding="utf-8"?>
<!-- Generator: Adobe Illustrator 27.7.0, SVG Export Plug-In . SVG Version: 6.00 Build 0)  -->
<svg version="1.1" id="Layer_1" xmlns="http://www.w3.org/2000/svg" xmlns:xlink="http://www.w3.org/1999/xlink" x="0px" y="0px"
	 viewBox="0 0 348.1 347" style="enable-background:new 0 0 348.1 347;" xml:space="preserve">
<style type="text/css">
	.st0{display:none;}
	.st1{display:inline;fill:#4336BF;stroke:#000000;stroke-miterlimit:10;}
	.st2{fill:none;stroke:#DDDDDD;stroke-miterlimit:10;}
	.st3{fill:none;}
	.st4{display:none;fill:none;stroke:#DDDDDD;stroke-miterlimit:10;}
	.st5{fill:none;stroke:#888888;stroke-miterlimit:10;}
	.st6{fill:#FFFFFF;}
	.st7{font-family:'ArialMT';}
	.st8{font-size:10px;}
	.st9{opacity:0;enable-background:new    ;}
	.st10{font-family:'Arial-BoldMT';}
	.st11{font-size:11px;}
	.st12{fill:none;stroke:#E45756;stroke-width:6;stroke-miterlimit:10;}
	.st13{display:none;fill:none;stroke:#E45756;stroke-width:2;stroke-miterlimit:10;}
	.st14{fill:none;stroke:#F58518;stroke-width:6;stroke-miterlimit:10;}
	.st15{display:none;fill:none;stroke:#F58518;stroke-width:2;stroke-miterlimit:10;}
	.st16{fill:none;stroke:#FFFFFF;stroke-miterlimit:10;}
	.st17{fill:none;stroke:#4C78A8;stroke-width:6;stroke-miterlimit:10;}
	.st18{display:none;fill:none;stroke:#4C78A8;stroke-width:2;stroke-miterlimit:10;}
	.st19{fill:#4C79A9;}
	.st20{font-size:14px;}
	.st21{fill:#E88813;}
	.st22{fill:#ED1414;}
</style>
<g id="Layer_2_00000067958442774057586020000017495672347120467869_" class="st0">
	<rect x="-40.5" y="-23.1" class="st1" width="423.6" height="393.3"/>
</g>
<path class="st2" d="M39.5,10.5h300v300h-300V10.5z"/>
<path pointer-events="none" class="st3" d="M39.5,310.5L39.5,310.5L39.5,310.5L39.5,310.5z"/>
<line class="st2" x1="39.5" y1="10.5" x2="39.5" y2="310.5"/>
<line class="st2" x1="339.5" y1="10.5" x2="339.5" y2="310.5"/>
<path pointer-events="none" class="st4" d="M39.5,310.5"/>
<path pointer-events="none" class="st3" d="M39.5,10.5L39.5,10.5L39.5,10.5L39.5,10.5z"/>
<line class="st2" x1="39.5" y1="310.5" x2="339.5" y2="310.5"/>
<line class="st2" x1="39.5" y1="10.5" x2="339.5" y2="10.5"/>
<path pointer-events="none" class="st4" d="M39.5,10.5"/>
<path pointer-events="none" class="st3" d="M39.5,310.5L39.5,310.5L39.5,310.5L39.5,310.5z"/>
<line class="st5" x1="39.5" y1="310.5" x2="39.5" y2="315.5"/>
<line class="st5" x1="77.5" y1="310.5" x2="77.5" y2="315.5"/>
<line class="st5" x1="114.5" y1="310.5" x2="114.5" y2="315.5"/>
<line class="st5" x1="152.5" y1="310.5" x2="152.5" y2="315.5"/>
<line class="st5" x1="189.5" y1="310.5" x2="189.5" y2="315.5"/>
<line class="st5" x1="227.5" y1="310.5" x2="227.5" y2="315.5"/>
<line class="st5" x1="264.5" y1="310.5" x2="264.5" y2="315.5"/>
<line class="st5" x1="302.5" y1="310.5" x2="302.5" y2="315.5"/>
<line class="st5" x1="339.5" y1="310.5" x2="339.5" y2="315.5"/>
<text transform="matrix(1 0 0 1 39.5 325.5)" class="st6 st7 st8">0</text>
<text transform="matrix(1 0 0 1 68.6577 325.5)" class="st9 st7 st8">500</text>
<text transform="matrix(1 0 0 1 101.9878 325.5)" class="st6 st7 st8">1,000</text>
<text transform="matrix(1 0 0 1 139.4878 325.5)" class="st9 st7 st8">1,500</text>
<text transform="matrix(1 0 0 1 176.9878 325.5)" class="st6 st7 st8">2,000</text>
<text transform="matrix(1 0 0 1 214.4878 325.5)" class="st9 st7 st8">2,500</text>
<text transform="matrix(1 0 0 1 251.9878 325.5)" class="st6 st7 st8">3,000</text>
<text transform="matrix(1 0 0 1 289.4878 325.5)" class="st9 st7 st8">3,500</text>
<text transform="matrix(1 0 0 1 314.4756 325.5)" class="st6 st7 st8">4,000</text>
<line class="st5" x1="39.5" y1="310.5" x2="339.5" y2="310.5"/>
<text transform="matrix(1 0 0 1 152.8181 340.5)" class="st6 st10 st11">distance (meters)</text>
<path pointer-events="none" class="st0" d="M39.5,310.5"/>
<path pointer-events="none" class="st3" d="M39.5,10.5L39.5,10.5L39.5,10.5L39.5,10.5z"/>
<line class="st5" x1="39.5" y1="310.5" x2="34.5" y2="310.5"/>
<line class="st5" x1="39.5" y1="277.5" x2="34.5" y2="277.5"/>
<line class="st5" x1="39.5" y1="243.5" x2="34.5" y2="243.5"/>
<line class="st5" x1="39.5" y1="210.5" x2="34.5" y2="210.5"/>
<line class="st5" x1="39.5" y1="177.5" x2="34.5" y2="177.5"/>
<line class="st5" x1="39.5" y1="143.5" x2="34.5" y2="143.5"/>
<line class="st5" x1="39.5" y1="110.5" x2="34.5" y2="110.5"/>
<line class="st5" x1="39.5" y1="77.5" x2="34.5" y2="77.5"/>
<line class="st5" x1="39.5" y1="43.5" x2="34.5" y2="43.5"/>
<line class="st5" x1="39.5" y1="10.5" x2="34.5" y2="10.5"/>
<text transform="matrix(1 0 0 1 26.9385 313.5)" class="st6 st7 st8">0</text>
<text transform="matrix(1 0 0 1 26.9385 280.1666)" class="st6 st7 st8">5</text>
<text transform="matrix(1 0 0 1 21.377 246.8333)" class="st6 st7 st8">10</text>
<text transform="matrix(1 0 0 1 21.377 213.5)" class="st6 st7 st8">15</text>
<text transform="matrix(1 0 0 1 21.377 180.1667)" class="st6 st7 st8">20</text>
<text transform="matrix(1 0 0 1 21.377 146.8333)" class="st6 st7 st8">25</text>
<text transform="matrix(1 0 0 1 21.377 113.5)" class="st6 st7 st8">30</text>
<text transform="matrix(1 0 0 1 21.377 80.1667)" class="st6 st7 st8">35</text>
<text transform="matrix(1 0 0 1 21.377 46.8334)" class="st6 st7 st8">40</text>
<text transform="matrix(1 0 0 1 21.377 13.5)" class="st6 st7 st8">45</text>
<line class="st5" x1="39.5" y1="310.5" x2="39.5" y2="10.5"/>
<text transform="matrix(6.123234e-17 -1 1 6.123234e-17 15.377 171.2051)" class="st6 st10 st11">elevation (meters)</text>
<path pointer-events="none" class="st0" d="M39.5,10.5"/>
<path class="st3" d="M39,10h300v300H39V10z"/>
<path class="st12" d="M39,136l0.3,0.6l2.6-1.7l1.2,1.8l2.6,15.8l1.9,26.4l1.6,17.7l1.4,3.9l1.2-0.1l0.8-4.7l0.7,5.1l13.7-3.1
	l0.9-14.8l0.6-10.1l1.9-12.3l1.2-3.9h0.6l1.8-5h2l1.1,0.7l0.3,0.7h0.4l1.9-3.1l2.9,0.8l0.7-1.8l1.8,1.7l1.1,0.2l1.1,0.1l1.8,3.7
	l1.4,1.9h0.8l1.6-1.6l0.2-0.5h0.1l0.7-5.1l5.3-12.2l6,0.6l5.9,0.4l5.9,3.5l0.6-0.7l0,0l0,0l6.5,11l5.8,11.2h0.5l2,6.7l1.8,7.1
	l1.6,6.3h0.5h0.4l5.7-12.1l5.9,6.5l4,14.4l0.9,1.2l0.5-1l0.4-1.3l0.6-1.1"/>
<path class="st13" d="M39,10"/>
<path class="st3" d="M39,10h300v300H39V10z"/>
<path class="st14" d="M155.1,190.2l4.5-6.2l1.2-0.7l0.5-2.5l2.2-4.2l2.1-11.1l0.5-2.2l6,26.7l6.8-13.3l7.1-20h5.8h6h5.9l6-6.7
	l5.9-6.7l7.8-26.7"/>
<path class="st15" d="M39,10"/>
<path class="st16" d="M39,10h300v300H39V10z"/>
<path class="st17" d="M223.8,116.7l0.5,2.1l0.7-0.5l0.6,1.3l0.5-2.3l2.1,2.5l1.1-1.5l0.5-0.7l0.5,1.1l0.5-1.9h0.2l0.6,0.1l0.4-1.3
	l0.4,0.5l0.5,2.2l0.6-0.7h0.6l0.7-1.3l7.4-21.3l8.3-13.1l5.4-5.4l1.1-2.3l0.9,2.1l0.5-3.1l0.9,0.9l0.8-2.7l0.4-1.1h0.2l0.6-2.8
	l0.2-2.1l2.6-8.4h0.9h2.1l1.3,6.7h1.1l1,2.7l0.5,4h0.4h0.4l0.8,0.7l0.8,6l4.3,6.7h0.5h0.5l7,6.7l10,26.7h0.9l0,0l0,0l0.7-2.3
	l0.7-4.3l2.1-6.7l3.1-13.9l0.9,0.7l0.7-6.9l0.6-19.6l5.1-26.9h0.2l0.6,2.8l0.1,0.6"/>
<path class="st18" d="M39,10"/>
<path pointer-events="none" class="st3" d="M357,26L357,26L357,26L357,26z"/>
<path pointer-events="none" class="st0" d="M357,26"/>
<path pointer-events="none" class="st0" d="M357,39"/>
<path pointer-events="none" class="st0" d="M357,52"/>
<path pointer-events="none" class="st0" d="M357,26"/>
<path pointer-events="none" class="st0" d="M357,10"/>
<path class="st0" d="M39,10"/>
<rect x="101.6" y="230.9" class="st3" width="49.8" height="25.3"/>
<text transform="matrix(1 0 0 1 101.642 237.9612)" class="st6 st7 st8">139th and </text>
<text transform="matrix(1 0 0 1 101.642 249.9612)" class="st6 st7 st8">Riverside</text>
<rect x="233.5" y="158.2" class="st3" width="49.8" height="25.3"/>
<text transform="matrix(1 0 0 1 233.4581 165.3143)" class="st6 st7 st8">125th and </text>
<text transform="matrix(1 0 0 1 233.4581 177.3143)" class="st6 st7 st8">Riverside</text>
<rect x="70" y="102.4" class="st3" width="49.8" height="25.3"/>
<text transform="matrix(1 0 0 1 70.0432 109.5467)" class="st6 st7 st8">156th and </text>
<text transform="matrix(1 0 0 1 70.0432 121.5467)" class="st6 st7 st8">Riverside</text>
<rect x="225.2" y="27" class="st3" width="49.8" height="25.3"/>
<text transform="matrix(1 0 0 1 228.2299 34.1052)" class="st6 st7 st8">116th and </text>
<text transform="matrix(1 0 0 1 228.2299 46.1052)" class="st6 st7 st8">Broadway</text>
<line class="st3" x1="152.5" y1="310.5" x2="153.3" y2="10.5"/>
<path class="st6" d="M223.8,11.3L223.5,310L223.8,11.3z"/>
<line class="st3" x1="154.9" y1="310" x2="155.1" y2="11.3"/>
<line class="st3" x1="223.5" y1="310" x2="223.8" y2="11.3"/>
<path class="st6" d="M175.7,250.1"/>
<line class="st2" x1="224.5" y1="309.7" x2="224.5" y2="11"/>
<line class="st2" x1="158.4" y1="309.7" x2="155.8" y2="11"/>
<g>
	<text transform="matrix(1 0 0 1 250.1002 281.5624)" class="st19 st10 st20">125th</text>
	<text transform="matrix(1 0 0 1 250.1002 293.5624)" class="st19 st10 st20">to 116th</text>
</g>
<g>
	<text transform="matrix(1 0 0 1 166.9182 280.3624)" class="st21 st10 st20">139th </text>
	<text transform="matrix(1 0 0 1 166.9182 292.3624)" class="st21 st10 st20">to 125th</text>
</g>
<g>
	<g>
		<text transform="matrix(1 0 0 1 81.5165 280.2865)" class="st22 st10 st20">157th</text>
	</g>
	<text transform="matrix(1 0 0 1 81.5165 292.2865)" class="st22 st10 st20">to 139th</text>
</g>
<g>
	<line class="st3" x1="66.1" y1="113.5" x2="44.6" y2="130.4"/>
	<g>
		<line class="st16" x1="66.1" y1="113.5" x2="50.2" y2="126"/>
		<g>
			<polygon class="st6" points="48.3,121.2 44.6,130.4 54.4,129 			"/>
		</g>
	</g>
</g>
<g>
	<line class="st3" x1="249.7" y1="154.9" x2="226" y2="130.4"/>
	<g>
		<line class="st16" x1="249.7" y1="154.9" x2="231" y2="135.6"/>
		<g>
			<polygon class="st6" points="235.6,133.2 226,130.4 228.4,140.1 			"/>
		</g>
	</g>
</g>
<g>
	<line class="st3" x1="274.7" y1="37.5" x2="306.2" y2="32.9"/>
	<g>
		<line class="st16" x1="274.7" y1="37.5" x2="299.1" y2="33.9"/>
		<g>
			<polygon class="st6" points="298.4,39.1 306.2,32.9 296.9,29.2 			"/>
		</g>
	</g>
</g>
<g>
	<line class="st3" x1="123.2" y1="225.4" x2="153.3" y2="201.1"/>
	<g>
		<line class="st16" x1="123.2" y1="225.4" x2="147.7" y2="205.6"/>
		<g>
			<polygon class="st6" points="149.7,210.4 153.3,201.1 143.4,202.6 			"/>
		</g>
	</g>
</g>
</svg>
