<?xml version="1.0" encoding="utf-8"?>
<!-- Generator: Adobe Illustrator 27.7.0, SVG Export Plug-In . SVG Version: 6.00 Build 0)  -->
<svg version="1.2" baseProfile="tiny" id="g-ai2html_demo_AR-Artboard_1-interactions-img" xmlns="http://www.w3.org/2000/svg" xmlns:xlink="http://www.w3.org/1999/xlink"
	 x="0px" y="0px" viewBox="0 0 700 500" overflow="visible" xml:space="preserve">
<g>
	
		<path id="maine_00000176747323460600557550000009447624308730489478_" fill="#CCCCCC" stroke="#000000" stroke-width="0.25" stroke-miterlimit="10" d="
		M252.823,64.326l-1.465-1.27l-3.342-10.607l2.287-4.054l-0.458-0.889l0.23-3.752l1.702-4.958l1.655,1.138l2.234-1.61l2.053,1.002
		l2.24,7.505l1.595,0.095l0.78,2.237l1.194-0.092l1.025,1.486l-0.529,1.126l-2.364,1.454l-1.66,2.107l-2.26,0.304l-0.378,2.11
		l-1.507,1.522l-1.625,0.236l-0.162,1.595L252.823,64.326z"/>
	
		<path id="texas_00000045576634350489966470000012795920749918774448_" fill="#CCCCCC" stroke="#000000" stroke-width="0.25" stroke-miterlimit="10" d="
		M99.603,139.447l-0.293-1.265l16.906,1.578l1.997-25.486l0.177,0.012l13.511,0.789l-0.464,11.024l1.365,1.075l2.021-0.053
		l0.295,1.084l4.724,0.703l0.91,1.335l1.392-0.591l2.311,1.477l1.433-0.641l2.748,0.488l3.333-0.925l2.015-0.041l3.034,1.66
		l2.08,0.449l0.065,3.026l0.118,5.779l1.081,1.256l1.575,4.204l-0.957,2.565l0.103,2.94l-0.526,2.056l-3.702,1.324l-0.514-1.43
		l-1.519,0.378l0.57,1.971l-2.251,2.331l-2.275,1.321l-1.92,0.437l-2.373,1.403l-1.9,1.743l-1.052,1.811l-1.191,3.891l0.293,3.093
		l0.694,2.024l-1.947,0.334l-3.07-0.352l-2.901-1.74l-1.454-0.357l-1.593-3.392l-0.074-2.597l-1.932-1.835l-2.142-3.637
		l-1.501-3.841l-3.738-4.042l-4.207-0.762l-1.696,0.623l-1.587,3.061l-1.699,0.966l-3.581-2.198l-2.145-1.994l-1.427-5.404
		l-2.248-1.835l-2.387-3.138L99.603,139.447z"/>
	
		<path id="florida_00000176036314816599041480000004694373577677281706_" fill="#CCCCCC" stroke="#000000" stroke-width="0.25" stroke-miterlimit="10" d="
		M191.267,148.893l0.34-2.269l-1.087-1.731l12.492-1.297l0.851,1.545l12.867-0.883l1.061-1.637l2.526,0.292l1.705,5.017l1.974,3.318
		l2.42,2.816l0.154,1.841l4.196,7.605l0.464,5.723l-0.88,3.079l-3.383,1.306l-0.399-1.268l-2.003-2.579l-1.143,0.006l-1.793-2.718
		l-2.098-1.711l-2.635-3.353l-1.143-2.343l0.425-4.057l-1.291-3.04l-1.779-0.505l-2.73-3.023l-2.033-0.975l-1.593,0.455
		l-2.059,1.953l-2.077,0.677l-0.872-1.359l-2.47-1.303l-3.767-0.638L191.267,148.893z"/>
	<path fill="#EE2525" d="M353.426,134.762c0.003,1.082-0.224,2.153-0.666,3.141c-1.165,2.6-6.76,10.109-6.76,10.109
		s-5.574-7.509-6.76-10.109c-0.442-0.988-0.669-2.059-0.666-3.141c-0.035-4.135,3.29-7.516,7.425-7.55c0,0,0,0,0.001,0
		C350.135,127.246,353.46,130.626,353.426,134.762C353.426,134.762,353.426,134.762,353.426,134.762z"/>
	<path id="sl-icon_00000111884632932009368990000016758806439176980105_" fill="#1F77B4" d="M374.426,154.762
		c0.003,1.082-0.224,2.153-0.666,3.141c-1.165,2.6-6.76,10.109-6.76,10.109s-5.574-7.509-6.76-10.109
		c-0.442-0.988-0.669-2.059-0.666-3.141c-0.035-4.135,3.29-7.516,7.425-7.55c0,0,0,0,0.001,0
		C371.135,147.246,374.46,150.626,374.426,154.762C374.426,154.762,374.426,154.762,374.426,154.762z"/>
</g>
<style>
#g-ai2html_demo_AR-Artboard_1-interactions-img rect, #g-ai2html_demo_AR-Artboard_1-interactions-img circle, #g-ai2html_demo_AR-Artboard_1-interactions-img path, #g-ai2html_demo_AR-Artboard_1-interactions-img line, #g-ai2html_demo_AR-Artboard_1-interactions-img polyline, #g-ai2html_demo_AR-Artboard_1-interactions-img polygon { vector-effect: non-scaling-stroke; }
</style>
</svg>

